<svg xmlns="http://www.w3.org/2000/svg" version="1.0" width="550" height="550" preserveAspectRatio="xMidYMid meet" style=""><rect id="backgroundrect" width="100%" height="100%" x="0" y="0" fill="none" stroke="none" style="" class=""/>


<g class="currentLayer" style=""><title>Layer 1</title>









<path fill="none" stroke="#d3b8a2" stroke-opacity="1" stroke-width="35" stroke-dasharray="none" stroke-linejoin="miter" stroke-linecap="butt" stroke-dashoffset="" fill-rule="nonzero" opacity="1" marker-start="" marker-mid="" marker-end="" d="M136.72880334738147,274.63560462288063 C136.72880334738147,198.8653929539527 198.1026747992131,137.49152150212103 273.87288646814113,137.49152150212103 C349.64309813706905,137.49152150212103 411.0169695889008,198.8653929539527 411.0169695889008,274.63560462288063 C411.0169695889008,350.40581629180866 349.64309813706905,411.7796877436403 273.87288646814113,411.7796877436403 C198.1026747992131,411.7796877436403 136.72880334738147,350.40581629180866 136.72880334738147,274.63560462288063 z" id="svg_7" class="selected"/><path fill="none" fill-opacity="1" stroke="#d3b8a2" stroke-opacity="1" stroke-width="35" stroke-dasharray="none" stroke-linejoin="miter" stroke-linecap="butt" stroke-dashoffset="" fill-rule="nonzero" opacity="1" marker-start="" marker-mid="" marker-end="" d="M273.08473443984985,490.99152782559395 C273.08473443984985,470.2826601815158 273.257664159352,453.50847738981247 273.47115764021873,453.50847738981247 C273.6846511210855,453.50847738981247 273.8575808405876,470.2826601815158 273.8575808405876,490.99152782559395 C273.8575808405876,511.7003954696721 273.6846511210855,528.4745782613754 273.47115764021873,528.4745782613754 C273.257664159352,528.4745782613754 273.08473443984985,511.7003954696721 273.08473443984985,490.99152782559395 z" id="svg_2" class="selected"/><path fill="none" fill-opacity="1" stroke="#d3b8a2" stroke-opacity="1" stroke-width="35" stroke-dasharray="none" stroke-linejoin="miter" stroke-linecap="butt" stroke-dashoffset="" fill-rule="nonzero" opacity="1" marker-start="" marker-mid="" marker-end="" d="M58.33901834487915,281.3304980099201 C58.33901834487915,260.62163036584195 58.51194806438127,243.84744757413864 58.72544154524803,243.84744757413864 C58.93893502611479,243.84744757413864 59.11186474561691,260.62163036584195 59.11186474561691,281.3304980099201 C59.11186474561691,302.0393656539983 58.93893502611479,318.8135484457016 58.72544154524803,318.8135484457016 C58.51194806438127,318.8135484457016 58.33901834487915,302.0393656539983 58.33901834487915,281.3304980099201 z" class="selected" id="svg_4" transform="rotate(91.0006103515625 58.72540283203123,281.33050537109375) "/><path fill="none" fill-opacity="1" stroke="#d3b8a2" stroke-opacity="1" stroke-width="35" stroke-dasharray="none" stroke-linejoin="miter" stroke-linecap="butt" stroke-dashoffset="" fill-rule="nonzero" opacity="1" marker-start="" marker-mid="" marker-end="" d="M489.35590982437134,280.9915316402912 C489.35590982437134,260.28266399621305 489.52883954387346,243.50848120450974 489.7423330247402,243.50848120450974 C489.955826505607,243.50848120450974 490.1287562251091,260.28266399621305 490.1287562251091,280.9915316402912 C490.1287562251091,301.7003992843694 489.955826505607,318.4745820760727 489.7423330247402,318.4745820760727 C489.52883954387346,318.4745820760727 489.35590982437134,301.7003992843694 489.35590982437134,280.9915316402912 z" class="selected" transform="rotate(91.0006103515625 489.74230957031256,280.9915466308594) " id="svg_5"/><path fill="none" fill-opacity="1" stroke="#d3b8a2" stroke-opacity="1" stroke-width="35" stroke-dasharray="none" stroke-linejoin="miter" stroke-linecap="butt" stroke-dashoffset="" fill-rule="nonzero" opacity="1" marker-start="" marker-mid="" marker-end="" d="M386.4745638370514,89.97458866238594 C386.4745638370514,69.26572101830777 386.6474935565535,52.49153822660446 386.8609870374203,52.49153822660446 C387.07448051828703,52.49153822660446 387.24741023778915,69.26572101830777 387.24741023778915,89.97458866238594 C387.24741023778915,110.68345630646411 387.07448051828703,127.45763909816742 386.8609870374203,127.45763909816742 C386.6474935565535,127.45763909816742 386.4745638370514,110.68345630646411 386.4745638370514,89.97458866238594 z" class="selected" transform="rotate(32.42409133911133 386.86099243164057,89.97459411621098) " id="svg_11"/><path fill="none" fill-opacity="1" stroke="#d3b8a2" stroke-opacity="1" stroke-width="35" stroke-dasharray="none" stroke-linejoin="miter" stroke-linecap="butt" stroke-dashoffset="" fill-rule="nonzero" opacity="1" marker-start="" marker-mid="" marker-end="" d="M153.0847532749176,463.36440756917 C153.0847532749176,442.65553992509183 153.25768299441972,425.8813571333885 153.47117647528648,425.8813571333885 C153.68466995615324,425.8813571333885 153.85759967565536,442.65553992509183 153.85759967565536,463.36440756917 C153.85759967565536,484.07327521324817 153.68466995615324,500.8474580049515 153.47117647528648,500.8474580049515 C153.25768299441972,500.8474580049515 153.0847532749176,484.07327521324817 153.0847532749176,463.36440756917 z" class="selected" transform="rotate(32.42409133911133 153.4711761474609,463.36441040039057) " id="svg_13"/><path fill="none" fill-opacity="1" stroke="#d3b8a2" stroke-opacity="1" stroke-width="35" stroke-dasharray="none" stroke-linejoin="miter" stroke-linecap="butt" stroke-dashoffset="" fill-rule="nonzero" opacity="1" marker-start="" marker-mid="" marker-end="" d="M465.7965941429138,171.83899262547493 C465.7965941429138,151.13012498139676 465.96952386241594,134.35594218969345 466.1830173432827,134.35594218969345 C466.39651082414946,134.35594218969345 466.5694405436516,151.13012498139676 466.5694405436516,171.83899262547493 C466.5694405436516,192.5478602695531 466.39651082414946,209.3220430612564 466.1830173432827,209.3220430612564 C465.96952386241594,209.3220430612564 465.7965941429138,192.5478602695531 465.7965941429138,171.83899262547493 z" class="selected" transform="rotate(66.1672592163086 466.18301391601557,171.8389892578125) " id="svg_12"/><path fill="none" fill-opacity="1" stroke="#d3b8a2" stroke-opacity="1" stroke-width="35" stroke-dasharray="none" stroke-linejoin="miter" stroke-linecap="butt" stroke-dashoffset="" fill-rule="nonzero" opacity="1" marker-start="" marker-mid="" marker-end="" d="M81.55933725833893,381.6694851219654 C81.55933725833893,360.96061747788724 81.73226697784105,344.18643468618393 81.94576045870781,344.18643468618393 C82.15925393957457,344.18643468618393 82.33218365907669,360.96061747788724 82.33218365907669,381.6694851219654 C82.33218365907669,402.3783527660436 82.15925393957457,419.1525355577469 81.94576045870781,419.1525355577469 C81.73226697784105,419.1525355577469 81.55933725833893,402.3783527660436 81.55933725833893,381.6694851219654 z" class="selected" transform="rotate(66.1672592163086 81.94575500488278,381.6694641113281) " id="svg_14"/><path fill="none" fill-opacity="1" stroke="#d3b8a2" stroke-opacity="1" stroke-width="35" stroke-dasharray="none" stroke-linejoin="miter" stroke-linecap="butt" stroke-dashoffset="" fill-rule="nonzero" opacity="1" marker-start="" marker-mid="" marker-end="" d="M81.22037291526794,169.46611097455025 C81.22037291526794,148.75724333047208 81.39330263477007,131.98306053876877 81.60679611563683,131.98306053876877 C81.82028959650359,131.98306053876877 81.9932193160057,148.75724333047208 81.9932193160057,169.46611097455025 C81.9932193160057,190.17497861862842 81.82028959650359,206.94916141033173 81.60679611563683,206.94916141033173 C81.39330263477007,206.94916141033173 81.22037291526794,190.17497861862842 81.22037291526794,169.46611097455025 z" class="selected" id="svg_1" transform="rotate(-64.772705078125 81.6067962646484,169.46611022949216) "/><path fill="none" fill-opacity="1" stroke="#d3b8a2" stroke-opacity="1" stroke-width="35" stroke-dasharray="none" stroke-linejoin="miter" stroke-linecap="butt" stroke-dashoffset="" fill-rule="nonzero" opacity="1" marker-start="" marker-mid="" marker-end="" d="M81.22037291526794,169.46611097455025 C81.22037291526794,148.75724333047208 81.39330263477007,131.98306053876877 81.60679611563683,131.98306053876877 C81.82028959650359,131.98306053876877 81.9932193160057,148.75724333047208 81.9932193160057,169.46611097455025 C81.9932193160057,190.17497861862842 81.82028959650359,206.94916141033173 81.60679611563683,206.94916141033173 C81.39330263477007,206.94916141033173 81.22037291526794,190.17497861862842 81.22037291526794,169.46611097455025 z" class="selected" transform="rotate(-64.772705078125 81.6067962646484,169.46611022949216) " id="svg_9"/><path fill="none" fill-opacity="1" stroke="#d3b8a2" stroke-opacity="1" stroke-width="35" stroke-dasharray="none" stroke-linejoin="miter" stroke-linecap="butt" stroke-dashoffset="" fill-rule="nonzero" opacity="1" marker-start="" marker-mid="" marker-end="" d="M469.0169583559036,381.8389756977558 C469.0169583559036,361.13010805367765 469.18988807540575,344.35592526197433 469.4033815562725,344.35592526197433 C469.61687503713927,344.35592526197433 469.7898047566414,361.13010805367765 469.7898047566414,381.8389756977558 C469.7898047566414,402.547843341834 469.61687503713927,419.3220261335373 469.4033815562725,419.3220261335373 C469.18988807540575,419.3220261335373 469.0169583559036,402.547843341834 469.0169583559036,381.8389756977558 z" class="selected" transform="rotate(-64.772705078125 469.40341186523443,381.83895874023443) " id="svg_10"/><path fill="none" fill-opacity="1" stroke="#d3b8a2" stroke-opacity="1" stroke-width="35" stroke-dasharray="none" stroke-linejoin="miter" stroke-linecap="butt" stroke-dashoffset="" fill-rule="nonzero" opacity="1" marker-start="" marker-mid="" marker-end="" d="M161.38986015319824,89.46611931920052 C161.38986015319824,68.75725167512235 161.56278987270036,51.98306888341904 161.77628335356712,51.98306888341904 C161.98977683443388,51.98306888341904 162.162706553936,68.75725167512235 162.162706553936,89.46611931920052 C162.162706553936,110.17498696327868 161.98977683443388,126.949169754982 161.77628335356712,126.949169754982 C161.56278987270036,126.949169754982 161.38986015319824,110.17498696327868 161.38986015319824,89.46611931920052 z" class="selected" transform="rotate(-31.12533950805664 161.77627563476562,89.46612548828126) " id="svg_8"/><path fill="none" fill-opacity="1" stroke="#d3b8a2" stroke-opacity="1" stroke-width="35" stroke-dasharray="none" stroke-linejoin="miter" stroke-linecap="butt" stroke-dashoffset="" fill-rule="nonzero" opacity="1" marker-start="" marker-mid="" marker-end="" d="M394.1017125248909,463.7033790051937 C394.1017125248909,442.99451136111554 394.274642244393,426.22032856941223 394.4881357252598,426.22032856941223 C394.70162920612654,426.22032856941223 394.87455892562866,442.99451136111554 394.87455892562866,463.7033790051937 C394.87455892562866,484.4122466492719 394.70162920612654,501.1864294409752 394.4881357252598,501.1864294409752 C394.274642244393,501.1864294409752 394.1017125248909,484.4122466492719 394.1017125248909,463.7033790051937 z" class="selected" transform="rotate(-31.12533950805664 394.4880981445311,463.703399658203) " id="svg_6"/><path fill="none" fill-opacity="1" stroke="#d3b8a2" stroke-opacity="1" stroke-width="35" stroke-dasharray="none" stroke-linejoin="miter" stroke-linecap="butt" stroke-dashoffset="" fill-rule="nonzero" opacity="1" marker-start="" marker-mid="" marker-end="" d="M272.74574041366577,59.29661014676094 C272.74574041366577,38.58774250268277 272.9186701331679,21.81355971097946 273.13216361403465,21.81355971097946 C273.3456570949014,21.81355971097946 273.51858681440353,38.58774250268277 273.51858681440353,59.29661014676094 C273.51858681440353,80.00547779083911 273.3456570949014,96.77966058254242 273.13216361403465,96.77966058254242 C272.9186701331679,96.77966058254242 272.74574041366577,80.00547779083911 272.74574041366577,59.29661014676094 z" class="selected" id="svg_3"/></g></svg>